<svg width="15" height="18" viewBox="0 0 15 18" fill="none" xmlns="http://www.w3.org/2000/svg">
<path d="M6.18752 17.4545H1.66297e-05V-1.90735e-06H6.23865C7.99433 -1.90735e-06 9.5057 0.34943 10.7727 1.04829C12.0398 1.74148 13.0142 2.73863 13.696 4.03977C14.3835 5.34091 14.7273 6.89773 14.7273 8.71023C14.7273 10.5284 14.3835 12.0909 13.696 13.3977C13.0142 14.7045 12.0341 15.7074 10.7557 16.4062C9.48297 17.1051 7.96024 17.4545 6.18752 17.4545ZM3.69036 14.2926H6.03411C7.12502 14.2926 8.04263 14.0994 8.78695 13.7131C9.53695 13.321 10.0994 12.7159 10.4744 11.8977C10.8551 11.0739 11.0455 10.0114 11.0455 8.71023C11.0455 7.42045 10.8551 6.36648 10.4744 5.54829C10.0994 4.73011 9.53979 4.12784 8.79547 3.74148C8.05115 3.35511 7.13354 3.16193 6.04263 3.16193H3.69036V14.2926Z" fill="url(#paint0_linear_225_828)"/>
<defs>
<linearGradient id="paint0_linear_225_828" x1="-2.49" y1="-2.34416" x2="20.2237" y2="-0.0626816" gradientUnits="userSpaceOnUse">
<stop stop-color="#007AFF"/>
<stop offset="0.514423" stop-color="#9735FF"/>
<stop offset="1" stop-color="#007AFF"/>
</linearGradient>
</defs>
</svg>
