<svg width="48" height="54" viewBox="0 0 48 54" fill="none" xmlns="http://www.w3.org/2000/svg">
<path d="M24 0C17.6348 0 11.5303 2.52856 7.02944 7.02944C2.52856 11.5303 0 17.6348 0 24V53.3333L8 45.3333L16 53.3333L24 45.3333L32 53.3333L40 45.3333L48 53.3333V24C48 17.6348 45.4714 11.5303 40.9706 7.02944C36.4697 2.52856 30.3652 0 24 0ZM16 16C17.4145 16 18.771 16.5619 19.7712 17.5621C20.7714 18.5623 21.3333 19.9188 21.3333 21.3333C21.3333 22.7478 20.7714 24.1044 19.7712 25.1046C18.771 26.1048 17.4145 26.6667 16 26.6667C14.5855 26.6667 13.229 26.1048 12.2288 25.1046C11.2286 24.1044 10.6667 22.7478 10.6667 21.3333C10.6667 19.9188 11.2286 18.5623 12.2288 17.5621C13.229 16.5619 14.5855 16 16 16ZM32 16C33.4145 16 34.771 16.5619 35.7712 17.5621C36.7714 18.5623 37.3333 19.9188 37.3333 21.3333C37.3333 22.7478 36.7714 24.1044 35.7712 25.1046C34.771 26.1048 33.4145 26.6667 32 26.6667C30.5855 26.6667 29.229 26.1048 28.2288 25.1046C27.2286 24.1044 26.6667 22.7478 26.6667 21.3333C26.6667 19.9188 27.2286 18.5623 28.2288 17.5621C29.229 16.5619 30.5855 16 32 16Z" fill="#171717"/>
</svg>
